HIERARCHY
ROOT Hips
{
	OFFSET 0.00000 0.00000 0.00000
	CHANNELS 6 Xposition Yposition Zposition Yrotation Zrotation Xrotation 
	JOINT Lumbar
	{
		OFFSET 0 0 0
		CHANNELS 3 Zrotation Xrotation Yrotation
		JOINT Neck
		{
			OFFSET 0.00 0.2701 0.00
			CHANNELS 3 Zrotation Xrotation Yrotation
			End Site
			{
				OFFSET 0.00 0.1379 0.00
			}
		}
		JOINT RightShoulder
		{
			OFFSET 0.0119 0.2289 0.1181
			CHANNELS 3 Zrotation Xrotation Yrotation
			JOINT RightElbow
			{
				OFFSET 0.00 -0.1475 0.00
				CHANNELS 2 Zrotation Yrotation
				JOINT RightWrist
				{
					OFFSET 0.00 -0.1605 0.00
					CHANNELS 2 Zrotation Xrotation
					End Site
					{
						OFFSET 0.0040 -0.1068 0.0006
					}
				}
			}
		}
		JOINT LeftShoulder
		{
			OFFSET 0.0119 0.2289 -0.1181
			CHANNELS 3 Zrotation Xrotation Yrotation
			JOINT LeftElbow
			{
				OFFSET 0.00 -0.1475 0.00
				CHANNELS 2 Zrotation Yrotation
				JOINT LeftWrist
				{
					OFFSET 0.00 -0.1605 0.00
					CHANNELS 2 Zrotation Xrotation
					End Site
					{
						OFFSET 0.0040 -0.1068 -0.0006
					}
				}
			}
		}
	}
	JOINT RightHip
	{
		OFFSET 0.0316 -0.0424 0.0458
		CHANNELS 3 Zrotation Xrotation Yrotation
		JOINT RightKnee
		{
			OFFSET 0.00 -0.2438 0.00
			CHANNELS 1 Zrotation
			JOINT RightAnkle
			{
				OFFSET 0.00 -0.2449 0.00
				CHANNELS 3 Zrotation Xrotation Yrotation
				End Site
				{
					OFFSET 0.1237 -0.0542 0.0051
				}
			}
		}
	}
	JOINT LeftHip
	{
		OFFSET 0.0316 -0.0424 -0.0458
		CHANNELS 3 Zrotation Xrotation Yrotation
		JOINT LeftKnee
		{
			OFFSET 0.00 -0.2438 0.00
			CHANNELS 1 Zrotation
			JOINT LeftAnkle
			{
				OFFSET 0.00 -0.2449 0.00
				CHANNELS 3 Zrotation Xrotation Yrotation
				End Site
				{
					OFFSET 0.1237 -0.0542 -0.0051
				}
			}
		}
	}
}
MOTION
Frames: 31
Frame Time: 0.02
-0.00014 -1e-05 2e-05 23.25387 -25.36265 -7.47504 43.95819 3.07649 -3.83295 -8.17376 -2.5529 -0.35007 71.98393 -98.96611 64.16937 5.33713 100.80545 11.7755 0.97257 57.57222 100.6257 -64.17116 7.72933 -95.87268 10.44749 -0.08914 40.88106 -2.54091 -3.66414 -22.26733 -6.8706 -3.72802 -2.56207 44.41932 8.93561 -0.07626 -27.49621 -6.50368 2.86326 2.11274
-7e-05 0 -2e-05 23.25505 -25.37045 -7.47535 43.95928 3.07898 -3.82452 -8.1846 -2.5485 -0.35026 71.9497 -98.96128 64.16937 5.33702 100.86263 11.78351 0.9584 57.5212 100.63151 -64.17116 7.73887 -95.87278 10.44555 -0.08375 40.88141 -2.55597 -3.73739 -22.26663 -6.86515 -3.70985 -2.55609 44.4204 8.92156 -0.12943 -27.4947 -6.50368 2.86687 2.11501
-1e-05 1e-05 -5e-05 23.25623 -25.37823 -7.47567 43.96037 3.08146 -3.81612 -8.19544 -2.5441 -0.35045 71.91554 -98.95645 64.16937 5.33692 100.9197 11.79153 0.94426 57.47038 100.63728 -64.17116 7.74838 -95.87288 10.44367 -0.07837 40.88174 -2.57099 -3.81043 -22.26594 -6.85972 -3.69174 -2.55013 44.42146 8.90757 -0.18238 -27.49319 -6.50368 2.87046 2.11727
6e-05 3e-05 -8e-05 23.25741 -25.38601 -7.47599 43.96145 3.08394 -3.80772 -8.20625 -2.53971 -0.35064 71.88141 -98.95164 64.16937 5.33682 100.97672 11.79952 0.93013 57.41952 100.64307 -64.17116 7.75788 -95.87298 10.44174 -0.073 40.88208 -2.58601 -3.88346 -22.26524 -6.85429 -3.67364 -2.54417 44.42253 8.89357 -0.23537 -27.49169 -6.50369 2.87405 2.11953
0.00012 4e-05 -0.00012 23.25858 -25.39382 -7.47631 43.96252 3.08644 -3.79928 -8.21705 -2.53532 -0.35083 71.84724 -98.94682 64.16937 5.33672 101.03383 11.80747 0.91599 57.36847 100.6489 -64.17116 7.76742 -95.87307 10.43972 -0.06763 40.88245 -2.60107 -3.95672 -22.26455 -6.84884 -3.65547 -2.53819 44.42363 8.87951 -0.28862 -27.49018 -6.50369 2.87766 2.12181
0.00019 6e-05 -0.00015 23.2598 -25.40152 -7.47661 43.96364 3.08888 -3.79094 -8.22799 -2.53091 -0.35102 71.81309 -98.94198 64.16937 5.33661 101.09081 11.81563 0.90186 57.31814 100.65456 -64.17116 7.77685 -95.87321 10.43814 -0.06224 40.88269 -2.61601 -4.0293 -22.26387 -6.84344 -3.63749 -2.53227 44.4246 8.86566 -0.34093 -27.48867 -6.50369 2.88123 2.12404
0.00025 7e-05 -0.00018 23.26092 -25.40943 -7.47695 43.96467 3.09143 -3.78242 -8.23863 -2.52655 -0.35121 71.77892 -98.93718 64.16937 5.33651 101.14801 11.82338 0.88771 57.26638 100.66057 -64.17116 7.7865 -95.87324 10.43569 -0.05688 40.88318 -2.63116 -4.1031 -22.26315 -6.83796 -3.61916 -2.52625 44.42583 8.8514 -0.39506 -27.48716 -6.50371 2.88487 2.12635
0.00032 8e-05 -0.00022 23.26213 -25.41715 -7.47726 43.96578 3.09388 -3.77407 -8.24954 -2.52214 -0.3514 71.74482 -98.93236 64.16937 5.33641 101.20498 11.83149 0.8736 57.21599 100.66625 -64.17116 7.79594 -95.87337 10.43403 -0.0515 40.88345 -2.64614 -4.17589 -22.26247 -6.83255 -3.60114 -2.52031 44.42683 8.83751 -0.44755 -27.48566 -6.50371 2.88844 2.12859
0.00038 0.0001 -0.00025 23.26346 -25.42464 -7.4775 43.96701 3.09623 -3.76591 -8.26081 -2.51766 -0.35159 71.71056 -98.92746 64.16937 5.33631 101.26179 11.84011 0.85945 57.16707 100.67152 -64.17116 7.80513 -95.87362 10.43339 -0.04606 40.88343 -2.66084 -4.24704 -22.26183 -6.82723 -3.58353 -2.51451 44.42753 8.82411 -0.49786 -27.48416 -6.50369 2.89193 2.13074
0.00045 0.00011 -0.00028 23.2641 -25.43343 -7.47807 43.9676 3.09919 -3.75661 -8.27012 -2.51357 -0.35178 71.6765 -98.92287 64.16937 5.33619 101.31987 11.84599 0.84525 57.10908 100.67912 -64.17116 7.81578 -95.8732 10.42701 -0.04088 40.88502 -2.67693 -4.32639 -22.26094 -6.8214 -3.56365 -2.50801 44.42987 8.80803 -0.56018 -27.48262 -6.50376 2.89589 2.1334
0.00051 0.00013 -0.00032 23.26619 -25.43951 -7.47796 43.96952 3.10086 -3.74975 -8.28347 -2.50867 -0.35197 71.64245 -98.91772 64.16937 5.33611 101.37504 11.85756 0.83131 57.0706 100.68183 -64.17116 7.82331 -95.87417 10.43268 -0.03521 40.88324 -2.69023 -4.38925 -22.26058 -6.81664 -3.54852 -2.50293 44.4288 8.79752 -0.59752 -27.48117 -6.50365 2.89887 2.13499
0.00056 0.00013 -0.00035 23.27247 -25.43779 -7.47574 43.97521 3.09885 -3.74942 -8.30882 -2.50155 -0.35217 71.60485 -98.91029 64.16937 5.33616 101.42406 11.88558 0.81686 57.08312 100.6708 -64.17116 7.82268 -95.87929 10.47212 -0.02757 40.87194 -2.69455 -4.39927 -22.26183 -6.81499 -3.54702 -2.50215 44.41784 8.80297 -0.56274 -27.47988 -6.50306 2.89912 2.13351
0.00061 0.00014 -0.00037 23.28016 -25.43341 -7.47286 43.98221 3.09556 -3.75157 -8.33805 -2.49363 -0.35237 71.56788 -98.90244 64.16937 5.33624 101.46982 11.91914 0.80287 57.11574 100.65492 -64.17116 7.81883 -95.88578 10.52349 -0.01956 40.85733 -2.69628 -4.3939 -22.26359 -6.8144 -3.5502 -2.50272 44.40354 8.81387 -0.50354 -27.47869 -6.50229 2.89838 2.13098
0.00066 0.00014 -0.0004 23.28708 -25.43048 -7.47044 43.98852 3.09293 -3.75272 -8.36491 -2.48608 -0.35258 71.53299 -98.89529 64.16937 5.3363 101.51584 11.9497 0.78947 57.14077 100.64145 -64.17116 7.81621 -95.89141 10.56897 -0.01212 40.84439 -2.70011 -4.4008 -22.26501 -6.81322 -3.55087 -2.5024 44.3911 8.82183 -0.45783 -27.47752 -6.5016 2.89811 2.12903
0.00071 0.00015 -0.00043 23.29459 -25.42653 -7.46737 43.99522 3.08994 -3.75339 -8.39437 -2.47848 -0.35279 71.48821 -98.88605 64.16937 5.3364 101.56697 11.98245 0.77273 57.15915 100.62709 -64.17119 7.81459 -95.89796 10.61659 -0.00295 40.83068 -2.70021 -4.38631 -22.2669 -6.81245 -3.55315 -2.50322 44.37722 8.83178 -0.40198 -27.4761 -6.50092 2.89776 2.12666
0.00076 0.00015 -0.00046 23.30113 -25.42409 -7.46547 44.00143 3.08741 -3.75561 -8.41931 -2.47082 -0.35298 71.46403 -98.881 64.16937 5.33642 101.60675 12.01178 0.76298 57.19636 100.61346 -64.17114 7.8101 -95.90304 10.66241 0.00266 40.81786 -2.70724 -4.41157 -22.26793 -6.81111 -3.5532 -2.50202 44.36556 8.83885 -0.36146 -27.47523 -6.50016 2.89736 2.12491
0.00081 0.00016 -0.00049 23.30533 -25.42632 -7.46704 44.00595 3.08647 -3.76165 -8.43094 -2.46318 -0.35309 71.49811 -98.88822 64.16937 5.33624 101.61531 12.03168 0.77302 57.27893 100.60278 -64.1708 7.79858 -95.90285 10.70181 -0.00119 40.80779 -2.73582 -4.56043 -22.26642 -6.80783 -3.54577 -2.49453 44.36072 8.83679 -0.36927 -27.47588 -6.49922 2.8969 2.12509
0.00086 0.00017 -0.00053 23.30839 -25.43019 -7.46978 44.00992 3.08606 -3.76913 -8.43787 -2.45552 -0.35318 71.55274 -98.89955 64.16937 5.33599 101.6127 12.04769 0.78996 57.38015 100.59303 -64.17037 7.78425 -95.90133 10.73872 -0.00873 40.79884 -2.77113 -4.74797 -22.26404 -6.80396 -3.53597 -2.48503 44.35824 8.83162 -0.39333 -27.47709 -6.49819 2.89645 2.12595
0.00091 0.00017 -0.00056 23.31154 -25.43341 -7.47189 44.01414 3.0854 -3.77588 -8.44686 -2.4479 -0.35328 71.59677 -98.90862 64.16937 5.33578 101.6156 12.06458 0.8033 57.47387 100.58307 -64.16999 7.77113 -95.90099 10.7758 -0.01489 40.78973 -2.80216 -4.91117 -22.2621 -6.8004 -3.52733 -2.4767 44.35473 8.82778 -0.40998 -27.47803 -6.4972 2.8961 2.12653
0.00096 0.00018 -0.0006 23.31655 -25.43613 -7.4744 44.01841 3.08471 -3.78307 -8.45631 -2.44013 -0.35338 71.64559 -98.91936 64.16937 5.33554 101.61648 12.08541 0.81853 57.56386 100.5722 -64.16956 7.75821 -95.89821 10.81732 -0.01977 40.77903 -2.8382 -5.10229 -22.26 -6.79668 -3.51844 -2.46731 44.3509 8.82448 -0.42602 -27.47903 -6.4962 2.89528 2.12692
0.001 0.00018 -0.00063 23.31738 -25.44033 -7.47635 44.02243 3.08424 -3.78962 -8.46366 -2.43268 -0.35347 71.69002 -98.92757 64.16937 5.33533 101.61906 12.09705 0.83159 57.66619 100.56334 -64.16923 7.74421 -95.90027 10.84888 -0.02819 40.77197 -2.86549 -5.24473 -22.25803 -6.79316 -3.50952 -2.45965 44.34837 8.81926 -0.44733 -27.48003 -6.49521 2.89545 2.12789
0.00104 0.00019 -0.00067 23.3072 -25.44822 -7.4766 44.02584 3.08413 -3.79432 -8.46597 -2.42597 -0.35355 71.71116 -98.92804 64.16937 5.33525 101.62819 12.08422 0.83584 57.79442 100.56115 -64.16917 7.72805 -95.91511 10.85332 -0.04558 40.77447 -2.86669 -5.24275 -22.25655 -6.79024 -3.50058 -2.45712 44.34878 8.80929 -0.48065 -27.48088 -6.49431 2.89837 2.13035
0.00106 0.00019 -0.00072 23.29282 -25.45754 -7.47624 44.02901 3.08425 -3.79828 -8.46638 -2.4196 -0.35363 71.72834 -98.92577 64.16937 5.3352 101.63959 12.06228 0.83789 57.93502 100.56072 -64.1692 7.71086 -95.93501 10.84784 -0.06638 40.78065 -2.85892 -5.19065 -22.25524 -6.78757 -3.49176 -2.4564 44.35045 8.79751 -0.51852 -27.4817 -6.49342 2.90228 2.13337
0.00109 0.00019 -0.00076 23.28017 -25.46625 -7.47608 44.03231 3.08437 -3.80236 -8.46787 -2.41314 -0.35371 71.75138 -98.92457 64.16937 5.33512 101.65057 12.04446 0.8417 58.07222 100.55862 -64.16919 7.69407 -95.9532 10.84695 -0.08557 40.78535 -2.85543 -5.16194 -22.25388 -6.78487 -3.4832 -2.45493 44.35163 8.78666 -0.55354 -27.48253 -6.49253 2.90573 2.13611
0.00112 0.0002 -0.00081 23.26817 -25.47491 -7.47627 44.03554 3.08409 -3.80732 -8.46824 -2.40639 -0.35378 71.75798 -98.92426 64.16937 5.33509 101.65862 12.02649 0.84254 58.20064 100.56025 -64.16919 7.67751 -95.96894 10.84548 -0.10516 40.78937 -2.85129 -5.13191 -22.25238 -6.7818 -3.47327 -2.4531 44.3526 8.77522 -0.5926 -27.48339 -6.49165 2.90923 2.139
0.00114 0.0002 -0.00085 23.25392 -25.48393 -7.47558 44.03882 3.08468 -3.81033 -8.4706 -2.40033 -0.35387 71.79763 -98.9214 64.16937 5.33498 101.67338 12.00684 0.84896 58.3501 100.55449 -64.1692 7.6602 -95.99089 10.84308 -0.12467 40.79555 -2.84631 -5.09232 -22.25122 -6.77956 -3.46622 -2.45246 44.3542 8.76469 -0.62389 -27.48417 -6.49073 2.91285 2.14167
0.00116 0.0002 -0.0009 23.23365 -25.49406 -7.47247 44.04257 3.08771 -3.80731 -8.47847 -2.39618 -0.35397 71.92918 -98.91208 64.16937 5.33465 101.70683 11.98384 0.87112 58.55397 100.52831 -64.1692 7.64181 -96.02983 10.83876 -0.14314 40.80758 -2.84099 -5.03761 -22.25101 -6.77962 -3.46725 -2.45483 44.35769 8.75661 -0.63477 -27.48479 -6.48966 2.91676 2.1437
0.00118 0.0002 -0.00095 23.2114 -25.50439 -7.46851 44.04634 3.09159 -3.80249 -8.4885 -2.39268 -0.35407 72.09411 -98.90031 64.16938 5.33424 101.74686 11.95964 0.89897 58.7785 100.49461 -64.16921 7.62262 -96.07466 10.83413 -0.16139 40.82151 -2.83513 -4.97499 -22.25114 -6.7805 -3.47115 -2.45832 44.36165 8.74962 -0.63731 -27.48531 -6.48855 2.92073 2.14546
0.0012 0.0002 -0.00099 23.19063 -25.51428 -7.46498 44.04992 3.09502 -3.79902 -8.49784 -2.38882 -0.35418 72.24382 -98.88969 64.16938 5.33388 101.78345 11.93666 0.92433 58.99405 100.46399 -64.16921 7.60332 -96.1161 10.83088 -0.17972 40.83405 -2.82961 -4.91651 -22.25113 -6.78097 -3.47362 -2.46121 44.36507 8.7425 -0.64204 -27.48585 -6.48746 2.92452 2.14725
0.00122 0.00021 -0.00104 23.16734 -25.5257 -7.46121 44.0542 3.09872 -3.79329 -8.50588 -2.38528 -0.35427 72.39346 -98.87877 64.16938 5.33349 101.82202 11.9106 0.94926 59.2088 100.43464 -64.16922 7.58587 -96.16076 10.82225 -0.19824 40.84893 -2.82341 -4.85414 -22.25108 -6.7816 -3.47659 -2.46452 44.36992 8.73385 -0.65328 -27.48652 -6.48635 2.92894 2.14944
0.00124 0.00021 -0.00109 23.1488 -25.53397 -7.45777 44.05712 3.10204 -3.79181 -8.5172 -2.38118 -0.35439 72.55141 -98.86798 64.16938 5.33313 101.85799 11.89066 0.97641 59.42936 100.40112 -64.16923 7.56455 -96.20002 10.82466 -0.21627 40.85933 -2.81856 -4.79847 -22.25118 -6.78209 -3.47922 -2.46722 44.37186 8.72859 -0.64945 -27.48689 -6.48526 2.93209 2.15074
